solid OpenSCAD_Model
  facet normal 0 0 -1
    outer loop
      vertex 10.6 -61.867 17.7
      vertex 3.39999 11.133 17.7
      vertex 10 19.733 17.7
    endloop
  endfacet
  facet normal 0 0 -1
    outer loop
      vertex 10.6 -61.867 17.7
      vertex 2.98999 -56.857 17.7
      vertex 3.39999 11.133 17.7
    endloop
  endfacet
  facet normal 0 0 -1
    outer loop
      vertex 10.6 -61.867 17.7
      vertex 2 -57.267 17.7
      vertex 2.98999 -56.857 17.7
    endloop
  endfacet
  facet normal 0 0 -1
    outer loop
      vertex -6 -62.467 17.7
      vertex 2 -57.267 17.7
      vertex 10.6 -61.867 17.7
    endloop
  endfacet
  facet normal 0 0 -1
    outer loop
      vertex -10.6 -57.867 17.7
      vertex -6 -62.467 17.7
      vertex -6.21899 -62.484 17.7
    endloop
  endfacet
  facet normal 0 0 -1
    outer loop
      vertex -10.6 -57.867 17.7
      vertex -6.21899 -62.484 17.7
      vertex -6.823 -62.734 17.7
    endloop
  endfacet
  facet normal 0 0 -1
    outer loop
      vertex -10.6 -64.344 17.7
      vertex -7.39999 -67.467 17.7
      vertex -9.69899 -67.467 17.7
    endloop
  endfacet
  facet normal 0 0 -1
    outer loop
      vertex -7.39999 -67.467 17.7
      vertex -10.6 -64.344 17.7
      vertex -6.823 -62.734 17.7
    endloop
  endfacet
  facet normal 0 0 -1
    outer loop
      vertex -10.6 -57.867 17.7
      vertex -6.823 -62.734 17.7
      vertex -10.6 -64.344 17.7
    endloop
  endfacet
  facet normal 0 0 -1
    outer loop
      vertex -6 -62.467 17.7
      vertex -10.6 -57.867 17.7
      vertex 2 -57.267 17.7
    endloop
  endfacet
  facet normal 0 0 -1
    outer loop
      vertex 2.98999 12.123 17.7
      vertex 10 19.733 17.7
      vertex 3.39999 11.133 17.7
    endloop
  endfacet
  facet normal 0 0 -1
    outer loop
      vertex -4.98999 20.143 17.7
      vertex 2.98999 12.123 17.7
      vertex -4 12.533 17.7
    endloop
  endfacet
  facet normal 0 0 -1
    outer loop
      vertex -4.98999 20.143 17.7
      vertex -4 12.533 17.7
      vertex -4.823 12.266 17.7
    endloop
  endfacet
  facet normal 0 0 -1
    outer loop
      vertex 2.98999 12.123 17.7
      vertex -4.98999 20.143 17.7
      vertex 10 19.733 17.7
    endloop
  endfacet
  facet normal 0 0 -1
    outer loop
      vertex -7.62 7.53299 17.7
      vertex -4.823 12.266 17.7
      vertex -5.39999 7.53299 17.7
    endloop
  endfacet
  facet normal 0 0 -1
    outer loop
      vertex -4.823 12.266 17.7
      vertex -8.59999 12.592 17.7
      vertex -4.98999 20.143 17.7
    endloop
  endfacet
  facet normal -0 0 -1
    outer loop
      vertex -4.98999 20.143 17.7
      vertex -8.59999 12.592 17.7
      vertex -5.39999 21.133 17.7
    endloop
  endfacet
  facet normal 0 0 -1
    outer loop
      vertex -5.39999 21.133 17.7
      vertex -8.59999 26.039 17.7
      vertex -5.39999 31.733 17.7
    endloop
  endfacet
  facet normal -0 0 -1
    outer loop
      vertex -4.823 12.266 17.7
      vertex -7.62 7.53299 17.7
      vertex -8.59999 12.592 17.7
    endloop
  endfacet
  facet normal -0 0 -1
    outer loop
      vertex -5.39999 21.133 17.7
      vertex -8.59999 12.592 17.7
      vertex -8.59999 26.039 17.7
    endloop
  endfacet
  facet normal -0 0 -1
    outer loop
      vertex -5.39999 31.733 17.7
      vertex -8.59999 26.039 17.7
      vertex -5.75299 31.733 17.7
    endloop
  endfacet
  facet normal -0 0 1
    outer loop
      vertex -8.59999 26.039 27.7
      vertex -5.39999 21.133 27.7
      vertex -5.39999 31.733 27.7
    endloop
  endfacet
  facet normal 0 0 1
    outer loop
      vertex -8.59999 26.039 27.7
      vertex -5.39999 31.733 27.7
      vertex -5.75299 31.733 27.7
    endloop
  endfacet
  facet normal 0 0 1
    outer loop
      vertex -8.59999 12.592 27.7
      vertex -5.39999 21.133 27.7
      vertex -8.59999 26.039 27.7
    endloop
  endfacet
  facet normal 0 0 1
    outer loop
      vertex -5.39999 21.133 27.7
      vertex -8.59999 12.592 27.7
      vertex -5.39999 7.53299 27.7
    endloop
  endfacet
  facet normal 0 0 1
    outer loop
      vertex -5.39999 7.53299 27.7
      vertex -8.59999 12.592 27.7
      vertex -7.62 7.53299 27.7
    endloop
  endfacet
  facet normal 0 0 1
    outer loop
      vertex 10 19.733 27.7
      vertex 2.98999 12.123 27.7
      vertex 3.39999 11.133 27.7
    endloop
  endfacet
  facet normal 0 0 1
    outer loop
      vertex -4.98999 20.143 27.7
      vertex 2.98999 12.123 27.7
      vertex 10 19.733 27.7
    endloop
  endfacet
  facet normal 0 0 1
    outer loop
      vertex 2.98999 12.123 27.7
      vertex -4.98999 20.143 27.7
      vertex -4 12.533 27.7
    endloop
  endfacet
  facet normal 0 0 1
    outer loop
      vertex -4 12.533 27.7
      vertex -4.98999 20.143 27.7
      vertex -4.823 12.266 27.7
    endloop
  endfacet
  facet normal 0 0 1
    outer loop
      vertex -5.39999 21.133 27.7
      vertex -4.823 12.266 27.7
      vertex -4.98999 20.143 27.7
    endloop
  endfacet
  facet normal 0 0 1
    outer loop
      vertex -4.823 12.266 27.7
      vertex -5.39999 21.133 27.7
      vertex -5.39999 7.53299 27.7
    endloop
  endfacet
  facet normal -0 0 1
    outer loop
      vertex 3.39999 11.133 27.7
      vertex 10.6 -61.867 27.7
      vertex 10 19.733 27.7
    endloop
  endfacet
  facet normal -0 0 1
    outer loop
      vertex 2.98999 -56.857 27.7
      vertex 10.6 -61.867 27.7
      vertex 3.39999 11.133 27.7
    endloop
  endfacet
  facet normal -0 0 1
    outer loop
      vertex 2 -57.267 27.7
      vertex 10.6 -61.867 27.7
      vertex 2.98999 -56.857 27.7
    endloop
  endfacet
  facet normal 0 0 1
    outer loop
      vertex 2 -57.267 27.7
      vertex -6 -62.467 27.7
      vertex 10.6 -61.867 27.7
    endloop
  endfacet
  facet normal -0 0 1
    outer loop
      vertex -10.6 -57.867 27.7
      vertex -6 -62.467 27.7
      vertex 2 -57.267 27.7
    endloop
  endfacet
  facet normal 0 0 1
    outer loop
      vertex -6 -62.467 27.7
      vertex -10.6 -57.867 27.7
      vertex -6.21899 -62.484 27.7
    endloop
  endfacet
  facet normal -0 0 1
    outer loop
      vertex -10.6 -64.344 27.7
      vertex -7.39999 -67.467 27.7
      vertex -6.823 -62.734 27.7
    endloop
  endfacet
  facet normal 0 0 1
    outer loop
      vertex -6.21899 -62.484 27.7
      vertex -10.6 -57.867 27.7
      vertex -6.823 -62.734 27.7
    endloop
  endfacet
  facet normal 0 0 1
    outer loop
      vertex -10.6 -64.344 27.7
      vertex -6.823 -62.734 27.7
      vertex -10.6 -57.867 27.7
    endloop
  endfacet
  facet normal 0 0 1
    outer loop
      vertex -7.39999 -67.467 27.7
      vertex -10.6 -64.344 27.7
      vertex -9.69899 -67.467 27.7
    endloop
  endfacet
  facet normal 0.382436 -0.923982 0
    outer loop
      vertex -6.823 -62.734 17.7
      vertex -6.21899 -62.484 27.7
      vertex -6.823 -62.734 27.7
    endloop
  endfacet
  facet normal 0.382436 -0.923982 0
    outer loop
      vertex -6.21899 -62.484 27.7
      vertex -6.823 -62.734 17.7
      vertex -6.21899 -62.484 17.7
    endloop
  endfacet
  facet normal 0.0773963 -0.997 0
    outer loop
      vertex -6.21899 -62.484 17.7
      vertex -6 -62.467 27.7
      vertex -6.21899 -62.484 27.7
    endloop
  endfacet
  facet normal 0.0773963 -0.997 0
    outer loop
      vertex -6 -62.467 27.7
      vertex -6.21899 -62.484 17.7
      vertex -6 -62.467 17.7
    endloop
  endfacet
  facet normal 0.036121 -0.999347 0
    outer loop
      vertex -6 -62.467 17.7
      vertex 10.6 -61.867 27.7
      vertex -6 -62.467 27.7
    endloop
  endfacet
  facet normal 0.036121 -0.999347 0
    outer loop
      vertex 10.6 -61.867 27.7
      vertex -6 -62.467 17.7
      vertex 10.6 -61.867 17.7
    endloop
  endfacet
  facet normal 0.999973 0.00735274 0
    outer loop
      vertex 10.6 -61.867 27.7
      vertex 10 19.733 17.7
      vertex 10 19.733 27.7
    endloop
  endfacet
  facet normal 0.999973 0.00735274 0
    outer loop
      vertex 10 19.733 17.7
      vertex 10.6 -61.867 27.7
      vertex 10.6 -61.867 17.7
    endloop
  endfacet
  facet normal 0.0273414 0.999626 -0
    outer loop
      vertex 10 19.733 17.7
      vertex -4.98999 20.143 27.7
      vertex 10 19.733 27.7
    endloop
  endfacet
  facet normal 0.0273414 0.999626 0
    outer loop
      vertex -4.98999 20.143 27.7
      vertex 10 19.733 17.7
      vertex -4.98999 20.143 17.7
    endloop
  endfacet
  facet normal 0.923903 0.382627 0
    outer loop
      vertex -4.98999 20.143 27.7
      vertex -5.39999 21.133 17.7
      vertex -5.39999 21.133 27.7
    endloop
  endfacet
  facet normal 0.923903 0.382627 0
    outer loop
      vertex -5.39999 21.133 17.7
      vertex -4.98999 20.143 27.7
      vertex -4.98999 20.143 17.7
    endloop
  endfacet
  facet normal 1 -0 0
    outer loop
      vertex -5.39999 21.133 27.7
      vertex -5.39999 31.733 17.7
      vertex -5.39999 31.733 27.7
    endloop
  endfacet
  facet normal 1 0 0
    outer loop
      vertex -5.39999 31.733 17.7
      vertex -5.39999 21.133 27.7
      vertex -5.39999 21.133 17.7
    endloop
  endfacet
  facet normal 0 1 -0
    outer loop
      vertex -5.39999 31.733 17.7
      vertex -5.75299 31.733 27.7
      vertex -5.39999 31.733 27.7
    endloop
  endfacet
  facet normal 0 1 0
    outer loop
      vertex -5.75299 31.733 27.7
      vertex -5.39999 31.733 17.7
      vertex -5.75299 31.733 17.7
    endloop
  endfacet
  facet normal -0.894427 0.447214 0
    outer loop
      vertex -8.59999 26.039 17.7
      vertex -5.75299 31.733 27.7
      vertex -5.75299 31.733 17.7
    endloop
  endfacet
  facet normal -0.894427 0.447214 0
    outer loop
      vertex -5.75299 31.733 27.7
      vertex -8.59999 26.039 17.7
      vertex -8.59999 26.039 27.7
    endloop
  endfacet
  facet normal -1 0 0
    outer loop
      vertex -8.59999 12.592 17.7
      vertex -8.59999 26.039 27.7
      vertex -8.59999 26.039 17.7
    endloop
  endfacet
  facet normal -1 -0 0
    outer loop
      vertex -8.59999 26.039 27.7
      vertex -8.59999 12.592 17.7
      vertex -8.59999 12.592 27.7
    endloop
  endfacet
  facet normal -0.98175 -0.190177 0
    outer loop
      vertex -7.62 7.53299 17.7
      vertex -8.59999 12.592 27.7
      vertex -8.59999 12.592 17.7
    endloop
  endfacet
  facet normal -0.98175 -0.190177 0
    outer loop
      vertex -8.59999 12.592 27.7
      vertex -7.62 7.53299 17.7
      vertex -7.62 7.53299 27.7
    endloop
  endfacet
  facet normal 0 -1 0
    outer loop
      vertex -7.62 7.53299 17.7
      vertex -5.39999 7.53299 27.7
      vertex -7.62 7.53299 27.7
    endloop
  endfacet
  facet normal 0 -1 -0
    outer loop
      vertex -5.39999 7.53299 27.7
      vertex -7.62 7.53299 17.7
      vertex -5.39999 7.53299 17.7
    endloop
  endfacet
  facet normal 0.992651 -0.121012 0
    outer loop
      vertex -5.39999 7.53299 27.7
      vertex -4.823 12.266 17.7
      vertex -4.823 12.266 27.7
    endloop
  endfacet
  facet normal 0.992651 -0.121012 0
    outer loop
      vertex -4.823 12.266 17.7
      vertex -5.39999 7.53299 27.7
      vertex -5.39999 7.53299 17.7
    endloop
  endfacet
  facet normal 0.308589 -0.951195 0
    outer loop
      vertex -4.823 12.266 17.7
      vertex -4 12.533 27.7
      vertex -4.823 12.266 27.7
    endloop
  endfacet
  facet normal 0.308589 -0.951195 0
    outer loop
      vertex -4 12.533 27.7
      vertex -4.823 12.266 17.7
      vertex -4 12.533 17.7
    endloop
  endfacet
  facet normal -0.0585547 -0.998284 0
    outer loop
      vertex -4 12.533 17.7
      vertex 2.98999 12.123 27.7
      vertex -4 12.533 27.7
    endloop
  endfacet
  facet normal -0.0585547 -0.998284 -0
    outer loop
      vertex 2.98999 12.123 27.7
      vertex -4 12.533 17.7
      vertex 2.98999 12.123 17.7
    endloop
  endfacet
  facet normal -0.923903 -0.382627 0
    outer loop
      vertex 3.39999 11.133 17.7
      vertex 2.98999 12.123 27.7
      vertex 2.98999 12.123 17.7
    endloop
  endfacet
  facet normal -0.923903 -0.382627 0
    outer loop
      vertex 2.98999 12.123 27.7
      vertex 3.39999 11.133 17.7
      vertex 3.39999 11.133 27.7
    endloop
  endfacet
  facet normal -0.999982 0.00603019 0
    outer loop
      vertex 2.98999 -56.857 17.7
      vertex 3.39999 11.133 27.7
      vertex 3.39999 11.133 17.7
    endloop
  endfacet
  facet normal -0.999982 0.00603019 0
    outer loop
      vertex 3.39999 11.133 27.7
      vertex 2.98999 -56.857 17.7
      vertex 2.98999 -56.857 27.7
    endloop
  endfacet
  facet normal -0.38263 0.923902 0
    outer loop
      vertex 2.98999 -56.857 17.7
      vertex 2 -57.267 27.7
      vertex 2.98999 -56.857 27.7
    endloop
  endfacet
  facet normal -0.38263 0.923902 0
    outer loop
      vertex 2 -57.267 27.7
      vertex 2.98999 -56.857 17.7
      vertex 2 -57.267 17.7
    endloop
  endfacet
  facet normal -0.0475651 0.998868 0
    outer loop
      vertex 2 -57.267 17.7
      vertex -10.6 -57.867 27.7
      vertex 2 -57.267 27.7
    endloop
  endfacet
  facet normal -0.0475651 0.998868 0
    outer loop
      vertex -10.6 -57.867 27.7
      vertex 2 -57.267 17.7
      vertex -10.6 -57.867 17.7
    endloop
  endfacet
  facet normal -1 0 0
    outer loop
      vertex -10.6 -64.344 17.7
      vertex -10.6 -57.867 27.7
      vertex -10.6 -57.867 17.7
    endloop
  endfacet
  facet normal -1 -0 0
    outer loop
      vertex -10.6 -57.867 27.7
      vertex -10.6 -64.344 17.7
      vertex -10.6 -64.344 27.7
    endloop
  endfacet
  facet normal -0.960812 -0.277202 0
    outer loop
      vertex -9.69899 -67.467 17.7
      vertex -10.6 -64.344 27.7
      vertex -10.6 -64.344 17.7
    endloop
  endfacet
  facet normal -0.960812 -0.277202 0
    outer loop
      vertex -10.6 -64.344 27.7
      vertex -9.69899 -67.467 17.7
      vertex -9.69899 -67.467 27.7
    endloop
  endfacet
  facet normal 0 -1 0
    outer loop
      vertex -9.69899 -67.467 17.7
      vertex -7.39999 -67.467 27.7
      vertex -9.69899 -67.467 27.7
    endloop
  endfacet
  facet normal 0 -1 -0
    outer loop
      vertex -7.39999 -67.467 27.7
      vertex -9.69899 -67.467 17.7
      vertex -7.39999 -67.467 17.7
    endloop
  endfacet
  facet normal 0.992651 -0.121012 0
    outer loop
      vertex -7.39999 -67.467 27.7
      vertex -6.823 -62.734 17.7
      vertex -6.823 -62.734 27.7
    endloop
  endfacet
  facet normal 0.992651 -0.121012 0
    outer loop
      vertex -6.823 -62.734 17.7
      vertex -7.39999 -67.467 27.7
      vertex -7.39999 -67.467 17.7
    endloop
  endfacet
  facet normal 0 0 -1
    outer loop
      vertex 10.6 -61.867 170.1
      vertex 3.39999 11.133 170.1
      vertex 10 19.733 170.1
    endloop
  endfacet
  facet normal 0 0 -1
    outer loop
      vertex 10.6 -61.867 170.1
      vertex 2.98999 -56.857 170.1
      vertex 3.39999 11.133 170.1
    endloop
  endfacet
  facet normal 0 0 -1
    outer loop
      vertex 10.6 -61.867 170.1
      vertex 2 -57.267 170.1
      vertex 2.98999 -56.857 170.1
    endloop
  endfacet
  facet normal 0 0 -1
    outer loop
      vertex -6 -62.467 170.1
      vertex 2 -57.267 170.1
      vertex 10.6 -61.867 170.1
    endloop
  endfacet
  facet normal 0 0 -1
    outer loop
      vertex -10.6 -57.867 170.1
      vertex -6 -62.467 170.1
      vertex -6.21899 -62.484 170.1
    endloop
  endfacet
  facet normal 0 0 -1
    outer loop
      vertex -10.6 -57.867 170.1
      vertex -6.21899 -62.484 170.1
      vertex -6.823 -62.734 170.1
    endloop
  endfacet
  facet normal 0 0 -1
    outer loop
      vertex -10.6 -64.344 170.1
      vertex -7.39999 -67.467 170.1
      vertex -9.69899 -67.467 170.1
    endloop
  endfacet
  facet normal 0 0 -1
    outer loop
      vertex -7.39999 -67.467 170.1
      vertex -10.6 -64.344 170.1
      vertex -6.823 -62.734 170.1
    endloop
  endfacet
  facet normal 0 0 -1
    outer loop
      vertex -10.6 -57.867 170.1
      vertex -6.823 -62.734 170.1
      vertex -10.6 -64.344 170.1
    endloop
  endfacet
  facet normal 0 0 -1
    outer loop
      vertex -6 -62.467 170.1
      vertex -10.6 -57.867 170.1
      vertex 2 -57.267 170.1
    endloop
  endfacet
  facet normal 0 0 -1
    outer loop
      vertex 2.98999 12.123 170.1
      vertex 10 19.733 170.1
      vertex 3.39999 11.133 170.1
    endloop
  endfacet
  facet normal 0 0 -1
    outer loop
      vertex -4.98999 20.143 170.1
      vertex 2.98999 12.123 170.1
      vertex -4 12.533 170.1
    endloop
  endfacet
  facet normal 0 0 -1
    outer loop
      vertex -4.98999 20.143 170.1
      vertex -4 12.533 170.1
      vertex -4.823 12.266 170.1
    endloop
  endfacet
  facet normal 0 0 -1
    outer loop
      vertex 2.98999 12.123 170.1
      vertex -4.98999 20.143 170.1
      vertex 10 19.733 170.1
    endloop
  endfacet
  facet normal 0 0 -1
    outer loop
      vertex -7.62 7.53299 170.1
      vertex -4.823 12.266 170.1
      vertex -5.39999 7.53299 170.1
    endloop
  endfacet
  facet normal 0 0 -1
    outer loop
      vertex -4.823 12.266 170.1
      vertex -8.59999 12.592 170.1
      vertex -4.98999 20.143 170.1
    endloop
  endfacet
  facet normal -0 0 -1
    outer loop
      vertex -4.98999 20.143 170.1
      vertex -8.59999 12.592 170.1
      vertex -5.39999 21.133 170.1
    endloop
  endfacet
  facet normal 0 0 -1
    outer loop
      vertex -5.39999 21.133 170.1
      vertex -8.59999 26.039 170.1
      vertex -5.39999 31.733 170.1
    endloop
  endfacet
  facet normal -0 0 -1
    outer loop
      vertex -4.823 12.266 170.1
      vertex -7.62 7.53299 170.1
      vertex -8.59999 12.592 170.1
    endloop
  endfacet
  facet normal -0 0 -1
    outer loop
      vertex -5.39999 21.133 170.1
      vertex -8.59999 12.592 170.1
      vertex -8.59999 26.039 170.1
    endloop
  endfacet
  facet normal -0 0 -1
    outer loop
      vertex -5.39999 31.733 170.1
      vertex -8.59999 26.039 170.1
      vertex -5.75299 31.733 170.1
    endloop
  endfacet
  facet normal -0 0 1
    outer loop
      vertex -8.59999 26.039 180.1
      vertex -5.39999 21.133 180.1
      vertex -5.39999 31.733 180.1
    endloop
  endfacet
  facet normal 0 0 1
    outer loop
      vertex -8.59999 26.039 180.1
      vertex -5.39999 31.733 180.1
      vertex -5.75299 31.733 180.1
    endloop
  endfacet
  facet normal 0 0 1
    outer loop
      vertex -8.59999 12.592 180.1
      vertex -5.39999 21.133 180.1
      vertex -8.59999 26.039 180.1
    endloop
  endfacet
  facet normal 0 0 1
    outer loop
      vertex -5.39999 21.133 180.1
      vertex -8.59999 12.592 180.1
      vertex -5.39999 7.53299 180.1
    endloop
  endfacet
  facet normal 0 0 1
    outer loop
      vertex -5.39999 7.53299 180.1
      vertex -8.59999 12.592 180.1
      vertex -7.62 7.53299 180.1
    endloop
  endfacet
  facet normal 0 0 1
    outer loop
      vertex 10 19.733 180.1
      vertex 2.98999 12.123 180.1
      vertex 3.39999 11.133 180.1
    endloop
  endfacet
  facet normal 0 0 1
    outer loop
      vertex -4.98999 20.143 180.1
      vertex 2.98999 12.123 180.1
      vertex 10 19.733 180.1
    endloop
  endfacet
  facet normal 0 0 1
    outer loop
      vertex 2.98999 12.123 180.1
      vertex -4.98999 20.143 180.1
      vertex -4 12.533 180.1
    endloop
  endfacet
  facet normal 0 0 1
    outer loop
      vertex -4 12.533 180.1
      vertex -4.98999 20.143 180.1
      vertex -4.823 12.266 180.1
    endloop
  endfacet
  facet normal 0 0 1
    outer loop
      vertex -5.39999 21.133 180.1
      vertex -4.823 12.266 180.1
      vertex -4.98999 20.143 180.1
    endloop
  endfacet
  facet normal 0 0 1
    outer loop
      vertex -4.823 12.266 180.1
      vertex -5.39999 21.133 180.1
      vertex -5.39999 7.53299 180.1
    endloop
  endfacet
  facet normal -0 0 1
    outer loop
      vertex 3.39999 11.133 180.1
      vertex 10.6 -61.867 180.1
      vertex 10 19.733 180.1
    endloop
  endfacet
  facet normal -0 0 1
    outer loop
      vertex 2.98999 -56.857 180.1
      vertex 10.6 -61.867 180.1
      vertex 3.39999 11.133 180.1
    endloop
  endfacet
  facet normal -0 0 1
    outer loop
      vertex 2 -57.267 180.1
      vertex 10.6 -61.867 180.1
      vertex 2.98999 -56.857 180.1
    endloop
  endfacet
  facet normal 0 0 1
    outer loop
      vertex 2 -57.267 180.1
      vertex -6 -62.467 180.1
      vertex 10.6 -61.867 180.1
    endloop
  endfacet
  facet normal -0 0 1
    outer loop
      vertex -10.6 -57.867 180.1
      vertex -6 -62.467 180.1
      vertex 2 -57.267 180.1
    endloop
  endfacet
  facet normal 0 0 1
    outer loop
      vertex -6 -62.467 180.1
      vertex -10.6 -57.867 180.1
      vertex -6.21899 -62.484 180.1
    endloop
  endfacet
  facet normal -0 0 1
    outer loop
      vertex -10.6 -64.344 180.1
      vertex -7.39999 -67.467 180.1
      vertex -6.823 -62.734 180.1
    endloop
  endfacet
  facet normal 0 0 1
    outer loop
      vertex -6.21899 -62.484 180.1
      vertex -10.6 -57.867 180.1
      vertex -6.823 -62.734 180.1
    endloop
  endfacet
  facet normal 0 0 1
    outer loop
      vertex -10.6 -64.344 180.1
      vertex -6.823 -62.734 180.1
      vertex -10.6 -57.867 180.1
    endloop
  endfacet
  facet normal 0 0 1
    outer loop
      vertex -7.39999 -67.467 180.1
      vertex -10.6 -64.344 180.1
      vertex -9.69899 -67.467 180.1
    endloop
  endfacet
  facet normal 0.382436 -0.923982 0
    outer loop
      vertex -6.823 -62.734 170.1
      vertex -6.21899 -62.484 180.1
      vertex -6.823 -62.734 180.1
    endloop
  endfacet
  facet normal 0.382436 -0.923982 0
    outer loop
      vertex -6.21899 -62.484 180.1
      vertex -6.823 -62.734 170.1
      vertex -6.21899 -62.484 170.1
    endloop
  endfacet
  facet normal 0.0773963 -0.997 0
    outer loop
      vertex -6.21899 -62.484 170.1
      vertex -6 -62.467 180.1
      vertex -6.21899 -62.484 180.1
    endloop
  endfacet
  facet normal 0.0773963 -0.997 0
    outer loop
      vertex -6 -62.467 180.1
      vertex -6.21899 -62.484 170.1
      vertex -6 -62.467 170.1
    endloop
  endfacet
  facet normal 0.036121 -0.999347 0
    outer loop
      vertex -6 -62.467 170.1
      vertex 10.6 -61.867 180.1
      vertex -6 -62.467 180.1
    endloop
  endfacet
  facet normal 0.036121 -0.999347 0
    outer loop
      vertex 10.6 -61.867 180.1
      vertex -6 -62.467 170.1
      vertex 10.6 -61.867 170.1
    endloop
  endfacet
  facet normal 0.999973 0.00735274 0
    outer loop
      vertex 10.6 -61.867 180.1
      vertex 10 19.733 170.1
      vertex 10 19.733 180.1
    endloop
  endfacet
  facet normal 0.999973 0.00735274 0
    outer loop
      vertex 10 19.733 170.1
      vertex 10.6 -61.867 180.1
      vertex 10.6 -61.867 170.1
    endloop
  endfacet
  facet normal 0.0273414 0.999626 -0
    outer loop
      vertex 10 19.733 170.1
      vertex -4.98999 20.143 180.1
      vertex 10 19.733 180.1
    endloop
  endfacet
  facet normal 0.0273414 0.999626 0
    outer loop
      vertex -4.98999 20.143 180.1
      vertex 10 19.733 170.1
      vertex -4.98999 20.143 170.1
    endloop
  endfacet
  facet normal 0.923903 0.382627 0
    outer loop
      vertex -4.98999 20.143 180.1
      vertex -5.39999 21.133 170.1
      vertex -5.39999 21.133 180.1
    endloop
  endfacet
  facet normal 0.923903 0.382627 0
    outer loop
      vertex -5.39999 21.133 170.1
      vertex -4.98999 20.143 180.1
      vertex -4.98999 20.143 170.1
    endloop
  endfacet
  facet normal 1 -0 0
    outer loop
      vertex -5.39999 21.133 180.1
      vertex -5.39999 31.733 170.1
      vertex -5.39999 31.733 180.1
    endloop
  endfacet
  facet normal 1 0 0
    outer loop
      vertex -5.39999 31.733 170.1
      vertex -5.39999 21.133 180.1
      vertex -5.39999 21.133 170.1
    endloop
  endfacet
  facet normal 0 1 -0
    outer loop
      vertex -5.39999 31.733 170.1
      vertex -5.75299 31.733 180.1
      vertex -5.39999 31.733 180.1
    endloop
  endfacet
  facet normal 0 1 0
    outer loop
      vertex -5.75299 31.733 180.1
      vertex -5.39999 31.733 170.1
      vertex -5.75299 31.733 170.1
    endloop
  endfacet
  facet normal -0.894427 0.447214 0
    outer loop
      vertex -8.59999 26.039 170.1
      vertex -5.75299 31.733 180.1
      vertex -5.75299 31.733 170.1
    endloop
  endfacet
  facet normal -0.894427 0.447214 0
    outer loop
      vertex -5.75299 31.733 180.1
      vertex -8.59999 26.039 170.1
      vertex -8.59999 26.039 180.1
    endloop
  endfacet
  facet normal -1 0 0
    outer loop
      vertex -8.59999 12.592 170.1
      vertex -8.59999 26.039 180.1
      vertex -8.59999 26.039 170.1
    endloop
  endfacet
  facet normal -1 -0 0
    outer loop
      vertex -8.59999 26.039 180.1
      vertex -8.59999 12.592 170.1
      vertex -8.59999 12.592 180.1
    endloop
  endfacet
  facet normal -0.98175 -0.190177 0
    outer loop
      vertex -7.62 7.53299 170.1
      vertex -8.59999 12.592 180.1
      vertex -8.59999 12.592 170.1
    endloop
  endfacet
  facet normal -0.98175 -0.190177 0
    outer loop
      vertex -8.59999 12.592 180.1
      vertex -7.62 7.53299 170.1
      vertex -7.62 7.53299 180.1
    endloop
  endfacet
  facet normal 0 -1 0
    outer loop
      vertex -7.62 7.53299 170.1
      vertex -5.39999 7.53299 180.1
      vertex -7.62 7.53299 180.1
    endloop
  endfacet
  facet normal 0 -1 -0
    outer loop
      vertex -5.39999 7.53299 180.1
      vertex -7.62 7.53299 170.1
      vertex -5.39999 7.53299 170.1
    endloop
  endfacet
  facet normal 0.992651 -0.121012 0
    outer loop
      vertex -5.39999 7.53299 180.1
      vertex -4.823 12.266 170.1
      vertex -4.823 12.266 180.1
    endloop
  endfacet
  facet normal 0.992651 -0.121012 0
    outer loop
      vertex -4.823 12.266 170.1
      vertex -5.39999 7.53299 180.1
      vertex -5.39999 7.53299 170.1
    endloop
  endfacet
  facet normal 0.308589 -0.951195 0
    outer loop
      vertex -4.823 12.266 170.1
      vertex -4 12.533 180.1
      vertex -4.823 12.266 180.1
    endloop
  endfacet
  facet normal 0.308589 -0.951195 0
    outer loop
      vertex -4 12.533 180.1
      vertex -4.823 12.266 170.1
      vertex -4 12.533 170.1
    endloop
  endfacet
  facet normal -0.0585547 -0.998284 0
    outer loop
      vertex -4 12.533 170.1
      vertex 2.98999 12.123 180.1
      vertex -4 12.533 180.1
    endloop
  endfacet
  facet normal -0.0585547 -0.998284 -0
    outer loop
      vertex 2.98999 12.123 180.1
      vertex -4 12.533 170.1
      vertex 2.98999 12.123 170.1
    endloop
  endfacet
  facet normal -0.923903 -0.382627 0
    outer loop
      vertex 3.39999 11.133 170.1
      vertex 2.98999 12.123 180.1
      vertex 2.98999 12.123 170.1
    endloop
  endfacet
  facet normal -0.923903 -0.382627 0
    outer loop
      vertex 2.98999 12.123 180.1
      vertex 3.39999 11.133 170.1
      vertex 3.39999 11.133 180.1
    endloop
  endfacet
  facet normal -0.999982 0.00603019 0
    outer loop
      vertex 2.98999 -56.857 170.1
      vertex 3.39999 11.133 180.1
      vertex 3.39999 11.133 170.1
    endloop
  endfacet
  facet normal -0.999982 0.00603019 0
    outer loop
      vertex 3.39999 11.133 180.1
      vertex 2.98999 -56.857 170.1
      vertex 2.98999 -56.857 180.1
    endloop
  endfacet
  facet normal -0.38263 0.923902 0
    outer loop
      vertex 2.98999 -56.857 170.1
      vertex 2 -57.267 180.1
      vertex 2.98999 -56.857 180.1
    endloop
  endfacet
  facet normal -0.38263 0.923902 0
    outer loop
      vertex 2 -57.267 180.1
      vertex 2.98999 -56.857 170.1
      vertex 2 -57.267 170.1
    endloop
  endfacet
  facet normal -0.0475651 0.998868 0
    outer loop
      vertex 2 -57.267 170.1
      vertex -10.6 -57.867 180.1
      vertex 2 -57.267 180.1
    endloop
  endfacet
  facet normal -0.0475651 0.998868 0
    outer loop
      vertex -10.6 -57.867 180.1
      vertex 2 -57.267 170.1
      vertex -10.6 -57.867 170.1
    endloop
  endfacet
  facet normal -1 0 0
    outer loop
      vertex -10.6 -64.344 170.1
      vertex -10.6 -57.867 180.1
      vertex -10.6 -57.867 170.1
    endloop
  endfacet
  facet normal -1 -0 0
    outer loop
      vertex -10.6 -57.867 180.1
      vertex -10.6 -64.344 170.1
      vertex -10.6 -64.344 180.1
    endloop
  endfacet
  facet normal -0.960812 -0.277202 0
    outer loop
      vertex -9.69899 -67.467 170.1
      vertex -10.6 -64.344 180.1
      vertex -10.6 -64.344 170.1
    endloop
  endfacet
  facet normal -0.960812 -0.277202 0
    outer loop
      vertex -10.6 -64.344 180.1
      vertex -9.69899 -67.467 170.1
      vertex -9.69899 -67.467 180.1
    endloop
  endfacet
  facet normal 0 -1 0
    outer loop
      vertex -9.69899 -67.467 170.1
      vertex -7.39999 -67.467 180.1
      vertex -9.69899 -67.467 180.1
    endloop
  endfacet
  facet normal 0 -1 -0
    outer loop
      vertex -7.39999 -67.467 180.1
      vertex -9.69899 -67.467 170.1
      vertex -7.39999 -67.467 170.1
    endloop
  endfacet
  facet normal 0.992651 -0.121012 0
    outer loop
      vertex -7.39999 -67.467 180.1
      vertex -6.823 -62.734 170.1
      vertex -6.823 -62.734 180.1
    endloop
  endfacet
  facet normal 0.992651 -0.121012 0
    outer loop
      vertex -6.823 -62.734 170.1
      vertex -7.39999 -67.467 180.1
      vertex -7.39999 -67.467 170.1
    endloop
  endfacet
  facet normal -1 0 0
    outer loop
      vertex 16 73.2 0
      vertex 16 65.7 20.7
      vertex 16 73.2 20.7
    endloop
  endfacet
  facet normal -1 0 0
    outer loop
      vertex 16 60.7 0
      vertex 16 65.7 24.7
      vertex 16 65.7 20.7
    endloop
  endfacet
  facet normal -1 -0 0
    outer loop
      vertex 16 65.7 24.7
      vertex 16 60.7 0
      vertex 16 65.7 173.1
    endloop
  endfacet
  facet normal -1 0 0
    outer loop
      vertex 16 60.7 197.8
      vertex 16 65.7 173.1
      vertex 16 60.7 0
    endloop
  endfacet
  facet normal -1 0 0
    outer loop
      vertex 16 60.7 0
      vertex 16 65.7 20.7
      vertex 16 73.2 0
    endloop
  endfacet
  facet normal -1 0 0
    outer loop
      vertex 16 65.7 24.7
      vertex 16 73.2 173.1
      vertex 16 73.2 24.7
    endloop
  endfacet
  facet normal -1 -0 0
    outer loop
      vertex 16 73.2 173.1
      vertex 16 65.7 24.7
      vertex 16 65.7 173.1
    endloop
  endfacet
  facet normal -1 0 0
    outer loop
      vertex 16 65.7 177.1
      vertex 16 73.2 197.8
      vertex 16 73.2 177.1
    endloop
  endfacet
  facet normal -1 0 0
    outer loop
      vertex 16 65.7 177.1
      vertex 16 60.7 197.8
      vertex 16 73.2 197.8
    endloop
  endfacet
  facet normal -1 0 0
    outer loop
      vertex 16 65.7 173.1
      vertex 16 60.7 197.8
      vertex 16 65.7 177.1
    endloop
  endfacet
  facet normal -1 0 0
    outer loop
      vertex 16 -109.2 24.7
      vertex 16 -101.7 173.1
      vertex 16 -101.7 24.7
    endloop
  endfacet
  facet normal -1 -0 0
    outer loop
      vertex 16 -101.7 173.1
      vertex 16 -109.2 24.7
      vertex 16 -109.2 173.1
    endloop
  endfacet
  facet normal -1 0 0
    outer loop
      vertex 16 -101.7 24.7
      vertex 16 -96.7 0
      vertex 16 -101.7 20.7
    endloop
  endfacet
  facet normal -1 0 0
    outer loop
      vertex 16 -109.2 0
      vertex 16 -101.7 20.7
      vertex 16 -96.7 0
    endloop
  endfacet
  facet normal -1 -0 0
    outer loop
      vertex 16 -101.7 20.7
      vertex 16 -109.2 0
      vertex 16 -109.2 20.7
    endloop
  endfacet
  facet normal -1 0 0
    outer loop
      vertex 16 -96.7 0
      vertex 16 -101.7 24.7
      vertex 16 -96.7 197.8
    endloop
  endfacet
  facet normal -1 0 0
    outer loop
      vertex 16 -101.7 173.1
      vertex 16 -96.7 197.8
      vertex 16 -101.7 24.7
    endloop
  endfacet
  facet normal -1 0 0
    outer loop
      vertex 16 -101.7 177.1
      vertex 16 -96.7 197.8
      vertex 16 -101.7 173.1
    endloop
  endfacet
  facet normal -1 0 0
    outer loop
      vertex 16 -109.2 197.8
      vertex 16 -101.7 177.1
      vertex 16 -109.2 177.1
    endloop
  endfacet
  facet normal -1 0 0
    outer loop
      vertex 16 -101.7 177.1
      vertex 16 -109.2 197.8
      vertex 16 -96.7 197.8
    endloop
  endfacet
  facet normal -1 0 0
    outer loop
      vertex 16 -86.7 24.7
      vertex 16 -25.5 173.1
      vertex 16 -25.5 24.7
    endloop
  endfacet
  facet normal -1 -0 0
    outer loop
      vertex 16 -25.5 173.1
      vertex 16 -86.7 24.7
      vertex 16 -86.7 173.1
    endloop
  endfacet
  facet normal -1 0 0
    outer loop
      vertex 16 -25.5 24.7
      vertex 16 -20.5 0
      vertex 16 -25.5 20.7
    endloop
  endfacet
  facet normal -1 0 0
    outer loop
      vertex 16 -20.5 0
      vertex 16 -86.7 20.7
      vertex 16 -25.5 20.7
    endloop
  endfacet
  facet normal -1 0 0
    outer loop
      vertex 16 -91.7 0
      vertex 16 -86.7 24.7
      vertex 16 -86.7 20.7
    endloop
  endfacet
  facet normal -1 -0 0
    outer loop
      vertex 16 -86.7 24.7
      vertex 16 -91.7 0
      vertex 16 -86.7 173.1
    endloop
  endfacet
  facet normal -1 0 0
    outer loop
      vertex 16 -91.7 197.8
      vertex 16 -86.7 173.1
      vertex 16 -91.7 0
    endloop
  endfacet
  facet normal -1 0 0
    outer loop
      vertex 16 -91.7 0
      vertex 16 -86.7 20.7
      vertex 16 -20.5 0
    endloop
  endfacet
  facet normal -1 0 0
    outer loop
      vertex 16 -20.5 0
      vertex 16 -25.5 24.7
      vertex 16 -20.5 197.8
    endloop
  endfacet
  facet normal -1 0 0
    outer loop
      vertex 16 -25.5 173.1
      vertex 16 -20.5 197.8
      vertex 16 -25.5 24.7
    endloop
  endfacet
  facet normal -1 0 0
    outer loop
      vertex 16 -25.5 177.1
      vertex 16 -20.5 197.8
      vertex 16 -25.5 173.1
    endloop
  endfacet
  facet normal -1 0 0
    outer loop
      vertex 16 -86.7 177.1
      vertex 16 -20.5 197.8
      vertex 16 -25.5 177.1
    endloop
  endfacet
  facet normal -1 0 0
    outer loop
      vertex 16 -86.7 177.1
      vertex 16 -91.7 197.8
      vertex 16 -20.5 197.8
    endloop
  endfacet
  facet normal -1 0 0
    outer loop
      vertex 16 -86.7 173.1
      vertex 16 -91.7 197.8
      vertex 16 -86.7 177.1
    endloop
  endfacet
  facet normal -1 0 0
    outer loop
      vertex 16 -10.5 24.7
      vertex 16 50.7 173.1
      vertex 16 50.7 24.7
    endloop
  endfacet
  facet normal -1 -0 0
    outer loop
      vertex 16 50.7 173.1
      vertex 16 -10.5 24.7
      vertex 16 -10.5 173.1
    endloop
  endfacet
  facet normal -1 0 0
    outer loop
      vertex 16 50.7 24.7
      vertex 16 55.7 0
      vertex 16 50.7 20.7
    endloop
  endfacet
  facet normal -1 0 0
    outer loop
      vertex 16 55.7 0
      vertex 16 -10.5 20.7
      vertex 16 50.7 20.7
    endloop
  endfacet
  facet normal -1 0 0
    outer loop
      vertex 16 -15.5 0
      vertex 16 -10.5 24.7
      vertex 16 -10.5 20.7
    endloop
  endfacet
  facet normal -1 -0 0
    outer loop
      vertex 16 -10.5 24.7
      vertex 16 -15.5 0
      vertex 16 -10.5 173.1
    endloop
  endfacet
  facet normal -1 0 0
    outer loop
      vertex 16 -15.5 197.8
      vertex 16 -10.5 173.1
      vertex 16 -15.5 0
    endloop
  endfacet
  facet normal -1 0 0
    outer loop
      vertex 16 -15.5 0
      vertex 16 -10.5 20.7
      vertex 16 55.7 0
    endloop
  endfacet
  facet normal -1 0 0
    outer loop
      vertex 16 55.7 0
      vertex 16 50.7 24.7
      vertex 16 55.7 197.8
    endloop
  endfacet
  facet normal -1 0 0
    outer loop
      vertex 16 50.7 173.1
      vertex 16 55.7 197.8
      vertex 16 50.7 24.7
    endloop
  endfacet
  facet normal -1 0 0
    outer loop
      vertex 16 50.7 177.1
      vertex 16 55.7 197.8
      vertex 16 50.7 173.1
    endloop
  endfacet
  facet normal -1 0 0
    outer loop
      vertex 16 -10.5 177.1
      vertex 16 55.7 197.8
      vertex 16 50.7 177.1
    endloop
  endfacet
  facet normal -1 0 0
    outer loop
      vertex 16 -10.5 177.1
      vertex 16 -15.5 197.8
      vertex 16 55.7 197.8
    endloop
  endfacet
  facet normal -1 0 0
    outer loop
      vertex 16 -10.5 173.1
      vertex 16 -15.5 197.8
      vertex 16 -10.5 177.1
    endloop
  endfacet
  facet normal -0 0 1
    outer loop
      vertex 11 -25.5 24.7
      vertex 16 -86.7 24.7
      vertex 16 -25.5 24.7
    endloop
  endfacet
  facet normal 0 0 1
    outer loop
      vertex 16 -86.7 24.7
      vertex 11 -25.5 24.7
      vertex 11 -86.7 24.7
    endloop
  endfacet
  facet normal 0 0 -1
    outer loop
      vertex 11 -86.7 20.7
      vertex 16 -25.5 20.7
      vertex 16 -86.7 20.7
    endloop
  endfacet
  facet normal -0 0 -1
    outer loop
      vertex 16 -25.5 20.7
      vertex 11 -86.7 20.7
      vertex 11 -25.5 20.7
    endloop
  endfacet
  facet normal -1 0 0
    outer loop
      vertex 11 -86.7 20.7
      vertex 11 -25.5 24.7
      vertex 11 -25.5 20.7
    endloop
  endfacet
  facet normal -1 -0 0
    outer loop
      vertex 11 -25.5 24.7
      vertex 11 -86.7 20.7
      vertex 11 -86.7 24.7
    endloop
  endfacet
  facet normal 0 1 -0
    outer loop
      vertex 16 -25.5 20.7
      vertex 11 -25.5 24.7
      vertex 16 -25.5 24.7
    endloop
  endfacet
  facet normal 0 1 0
    outer loop
      vertex 11 -25.5 24.7
      vertex 16 -25.5 20.7
      vertex 11 -25.5 20.7
    endloop
  endfacet
  facet normal 0 -1 0
    outer loop
      vertex 11 -86.7 20.7
      vertex 16 -86.7 24.7
      vertex 11 -86.7 24.7
    endloop
  endfacet
  facet normal 0 -1 -0
    outer loop
      vertex 16 -86.7 24.7
      vertex 11 -86.7 20.7
      vertex 16 -86.7 20.7
    endloop
  endfacet
  facet normal -0 0 1
    outer loop
      vertex 11 50.7 24.7
      vertex 16 -10.5 24.7
      vertex 16 50.7 24.7
    endloop
  endfacet
  facet normal 0 0 1
    outer loop
      vertex 16 -10.5 24.7
      vertex 11 50.7 24.7
      vertex 11 -10.5 24.7
    endloop
  endfacet
  facet normal 0 0 -1
    outer loop
      vertex 11 -10.5 20.7
      vertex 16 50.7 20.7
      vertex 16 -10.5 20.7
    endloop
  endfacet
  facet normal -0 0 -1
    outer loop
      vertex 16 50.7 20.7
      vertex 11 -10.5 20.7
      vertex 11 50.7 20.7
    endloop
  endfacet
  facet normal -1 0 0
    outer loop
      vertex 11 -10.5 20.7
      vertex 11 50.7 24.7
      vertex 11 50.7 20.7
    endloop
  endfacet
  facet normal -1 -0 0
    outer loop
      vertex 11 50.7 24.7
      vertex 11 -10.5 20.7
      vertex 11 -10.5 24.7
    endloop
  endfacet
  facet normal 0 1 -0
    outer loop
      vertex 16 50.7 20.7
      vertex 11 50.7 24.7
      vertex 16 50.7 24.7
    endloop
  endfacet
  facet normal 0 1 0
    outer loop
      vertex 11 50.7 24.7
      vertex 16 50.7 20.7
      vertex 11 50.7 20.7
    endloop
  endfacet
  facet normal 0 -1 0
    outer loop
      vertex 11 -10.5 20.7
      vertex 16 -10.5 24.7
      vertex 11 -10.5 24.7
    endloop
  endfacet
  facet normal 0 -1 -0
    outer loop
      vertex 16 -10.5 24.7
      vertex 11 -10.5 20.7
      vertex 16 -10.5 20.7
    endloop
  endfacet
  facet normal -0 0 1
    outer loop
      vertex 11 -25.5 177.1
      vertex 16 -86.7 177.1
      vertex 16 -25.5 177.1
    endloop
  endfacet
  facet normal 0 0 1
    outer loop
      vertex 16 -86.7 177.1
      vertex 11 -25.5 177.1
      vertex 11 -86.7 177.1
    endloop
  endfacet
  facet normal 0 0 -1
    outer loop
      vertex 11 -86.7 173.1
      vertex 16 -25.5 173.1
      vertex 16 -86.7 173.1
    endloop
  endfacet
  facet normal -0 0 -1
    outer loop
      vertex 16 -25.5 173.1
      vertex 11 -86.7 173.1
      vertex 11 -25.5 173.1
    endloop
  endfacet
  facet normal -1 0 0
    outer loop
      vertex 11 -86.7 173.1
      vertex 11 -25.5 177.1
      vertex 11 -25.5 173.1
    endloop
  endfacet
  facet normal -1 -0 0
    outer loop
      vertex 11 -25.5 177.1
      vertex 11 -86.7 173.1
      vertex 11 -86.7 177.1
    endloop
  endfacet
  facet normal 0 1 -0
    outer loop
      vertex 16 -25.5 173.1
      vertex 11 -25.5 177.1
      vertex 16 -25.5 177.1
    endloop
  endfacet
  facet normal 0 1 0
    outer loop
      vertex 11 -25.5 177.1
      vertex 16 -25.5 173.1
      vertex 11 -25.5 173.1
    endloop
  endfacet
  facet normal 0 -1 0
    outer loop
      vertex 11 -86.7 173.1
      vertex 16 -86.7 177.1
      vertex 11 -86.7 177.1
    endloop
  endfacet
  facet normal 0 -1 -0
    outer loop
      vertex 16 -86.7 177.1
      vertex 11 -86.7 173.1
      vertex 16 -86.7 173.1
    endloop
  endfacet
  facet normal -0 0 1
    outer loop
      vertex 11 50.7 177.1
      vertex 16 -10.5 177.1
      vertex 16 50.7 177.1
    endloop
  endfacet
  facet normal 0 0 1
    outer loop
      vertex 16 -10.5 177.1
      vertex 11 50.7 177.1
      vertex 11 -10.5 177.1
    endloop
  endfacet
  facet normal 0 0 -1
    outer loop
      vertex 11 -10.5 173.1
      vertex 16 50.7 173.1
      vertex 16 -10.5 173.1
    endloop
  endfacet
  facet normal -0 0 -1
    outer loop
      vertex 16 50.7 173.1
      vertex 11 -10.5 173.1
      vertex 11 50.7 173.1
    endloop
  endfacet
  facet normal -1 0 0
    outer loop
      vertex 11 -10.5 173.1
      vertex 11 50.7 177.1
      vertex 11 50.7 173.1
    endloop
  endfacet
  facet normal -1 -0 0
    outer loop
      vertex 11 50.7 177.1
      vertex 11 -10.5 173.1
      vertex 11 -10.5 177.1
    endloop
  endfacet
  facet normal 0 1 -0
    outer loop
      vertex 16 50.7 173.1
      vertex 11 50.7 177.1
      vertex 16 50.7 177.1
    endloop
  endfacet
  facet normal 0 1 0
    outer loop
      vertex 11 50.7 177.1
      vertex 16 50.7 173.1
      vertex 11 50.7 173.1
    endloop
  endfacet
  facet normal 0 -1 0
    outer loop
      vertex 11 -10.5 173.1
      vertex 16 -10.5 177.1
      vertex 11 -10.5 177.1
    endloop
  endfacet
  facet normal 0 -1 -0
    outer loop
      vertex 16 -10.5 177.1
      vertex 11 -10.5 173.1
      vertex 16 -10.5 173.1
    endloop
  endfacet
  facet normal -0 0 1
    outer loop
      vertex 11 -101.7 24.7
      vertex 16 -109.2 24.7
      vertex 16 -101.7 24.7
    endloop
  endfacet
  facet normal 0 0 1
    outer loop
      vertex 16 -109.2 24.7
      vertex 11 -101.7 24.7
      vertex 11 -109.2 24.7
    endloop
  endfacet
  facet normal 0 0 -1
    outer loop
      vertex 11 -109.2 20.7
      vertex 16 -101.7 20.7
      vertex 16 -109.2 20.7
    endloop
  endfacet
  facet normal -0 0 -1
    outer loop
      vertex 16 -101.7 20.7
      vertex 11 -109.2 20.7
      vertex 11 -101.7 20.7
    endloop
  endfacet
  facet normal -1 0 0
    outer loop
      vertex 11 -109.2 20.7
      vertex 11 -101.7 24.7
      vertex 11 -101.7 20.7
    endloop
  endfacet
  facet normal -1 -0 0
    outer loop
      vertex 11 -101.7 24.7
      vertex 11 -109.2 20.7
      vertex 11 -109.2 24.7
    endloop
  endfacet
  facet normal 0 1 -0
    outer loop
      vertex 16 -101.7 20.7
      vertex 11 -101.7 24.7
      vertex 16 -101.7 24.7
    endloop
  endfacet
  facet normal 0 1 0
    outer loop
      vertex 11 -101.7 24.7
      vertex 16 -101.7 20.7
      vertex 11 -101.7 20.7
    endloop
  endfacet
  facet normal 0 -1 0
    outer loop
      vertex 11 -109.2 24.7
      vertex 11 -109.2 20.7
      vertex 16 -109.2 24.7
    endloop
  endfacet
  facet normal 0 -1 0
    outer loop
      vertex 11 -109.2 177.1
      vertex 11 -109.2 173.1
      vertex 16 -109.2 177.1
    endloop
  endfacet
  facet normal 0 -1 0
    outer loop
      vertex 16 -109.2 177.1
      vertex 32 -109.2 197.8
      vertex 16 -109.2 197.8
    endloop
  endfacet
  facet normal 0 -1 0
    outer loop
      vertex 16 -109.2 173.1
      vertex 16 -109.2 177.1
      vertex 11 -109.2 173.1
    endloop
  endfacet
  facet normal 0 -1 0
    outer loop
      vertex 16 -109.2 173.1
      vertex 32 -109.2 197.8
      vertex 16 -109.2 177.1
    endloop
  endfacet
  facet normal 0 -1 0
    outer loop
      vertex 16 -109.2 24.7
      vertex 32 -109.2 197.8
      vertex 16 -109.2 173.1
    endloop
  endfacet
  facet normal 0 -1 0
    outer loop
      vertex 16 -109.2 20.7
      vertex 16 -109.2 24.7
      vertex 11 -109.2 20.7
    endloop
  endfacet
  facet normal 0 -1 0
    outer loop
      vertex 32 -109.2 0
      vertex 16 -109.2 24.7
      vertex 16 -109.2 20.7
    endloop
  endfacet
  facet normal 0 -1 0
    outer loop
      vertex 32 -109.2 0
      vertex 16 -109.2 20.7
      vertex 16 -109.2 0
    endloop
  endfacet
  facet normal 0 -1 0
    outer loop
      vertex 16 -109.2 24.7
      vertex 32 -109.2 0
      vertex 32 -109.2 197.8
    endloop
  endfacet
  facet normal -0 0 1
    outer loop
      vertex 11 73.2 24.7
      vertex 16 65.7 24.7
      vertex 16 73.2 24.7
    endloop
  endfacet
  facet normal 0 0 1
    outer loop
      vertex 16 65.7 24.7
      vertex 11 73.2 24.7
      vertex 11 65.7 24.7
    endloop
  endfacet
  facet normal 0 0 -1
    outer loop
      vertex 11 65.7 20.7
      vertex 16 73.2 20.7
      vertex 16 65.7 20.7
    endloop
  endfacet
  facet normal -0 0 -1
    outer loop
      vertex 16 73.2 20.7
      vertex 11 65.7 20.7
      vertex 11 73.2 20.7
    endloop
  endfacet
  facet normal -1 0 0
    outer loop
      vertex 11 65.7 20.7
      vertex 11 73.2 24.7
      vertex 11 73.2 20.7
    endloop
  endfacet
  facet normal -1 -0 0
    outer loop
      vertex 11 73.2 24.7
      vertex 11 65.7 20.7
      vertex 11 65.7 24.7
    endloop
  endfacet
  facet normal 0 1 0
    outer loop
      vertex 32 73.2 197.8
      vertex 16 73.2 177.1
      vertex 16 73.2 197.8
    endloop
  endfacet
  facet normal 0 1 0
    outer loop
      vertex 16 73.2 177.1
      vertex 16 73.2 173.1
      vertex 11 73.2 177.1
    endloop
  endfacet
  facet normal 0 1 0
    outer loop
      vertex 32 73.2 197.8
      vertex 16 73.2 173.1
      vertex 16 73.2 177.1
    endloop
  endfacet
  facet normal 0 1 0
    outer loop
      vertex 32 73.2 197.8
      vertex 16 73.2 24.7
      vertex 16 73.2 173.1
    endloop
  endfacet
  facet normal 0 1 0
    outer loop
      vertex 16 73.2 24.7
      vertex 16 73.2 20.7
      vertex 11 73.2 24.7
    endloop
  endfacet
  facet normal 0 1 -0
    outer loop
      vertex 32 73.2 0
      vertex 16 73.2 24.7
      vertex 32 73.2 197.8
    endloop
  endfacet
  facet normal 0 1 0
    outer loop
      vertex 16 73.2 24.7
      vertex 32 73.2 0
      vertex 16 73.2 20.7
    endloop
  endfacet
  facet normal 0 1 0
    outer loop
      vertex 16 73.2 20.7
      vertex 32 73.2 0
      vertex 16 73.2 0
    endloop
  endfacet
  facet normal 0 1 0
    outer loop
      vertex 11 73.2 177.1
      vertex 16 73.2 173.1
      vertex 11 73.2 173.1
    endloop
  endfacet
  facet normal 0 1 0
    outer loop
      vertex 11 73.2 24.7
      vertex 16 73.2 20.7
      vertex 11 73.2 20.7
    endloop
  endfacet
  facet normal 0 -1 0
    outer loop
      vertex 11 65.7 20.7
      vertex 16 65.7 24.7
      vertex 11 65.7 24.7
    endloop
  endfacet
  facet normal 0 -1 -0
    outer loop
      vertex 16 65.7 24.7
      vertex 11 65.7 20.7
      vertex 16 65.7 20.7
    endloop
  endfacet
  facet normal -0 0 1
    outer loop
      vertex 11 -101.7 177.1
      vertex 16 -109.2 177.1
      vertex 16 -101.7 177.1
    endloop
  endfacet
  facet normal 0 0 1
    outer loop
      vertex 16 -109.2 177.1
      vertex 11 -101.7 177.1
      vertex 11 -109.2 177.1
    endloop
  endfacet
  facet normal 0 0 -1
    outer loop
      vertex 11 -109.2 173.1
      vertex 16 -101.7 173.1
      vertex 16 -109.2 173.1
    endloop
  endfacet
  facet normal -0 0 -1
    outer loop
      vertex 16 -101.7 173.1
      vertex 11 -109.2 173.1
      vertex 11 -101.7 173.1
    endloop
  endfacet
  facet normal -1 0 0
    outer loop
      vertex 11 -109.2 173.1
      vertex 11 -101.7 177.1
      vertex 11 -101.7 173.1
    endloop
  endfacet
  facet normal -1 -0 0
    outer loop
      vertex 11 -101.7 177.1
      vertex 11 -109.2 173.1
      vertex 11 -109.2 177.1
    endloop
  endfacet
  facet normal 0 1 -0
    outer loop
      vertex 16 -101.7 173.1
      vertex 11 -101.7 177.1
      vertex 16 -101.7 177.1
    endloop
  endfacet
  facet normal 0 1 0
    outer loop
      vertex 11 -101.7 177.1
      vertex 16 -101.7 173.1
      vertex 11 -101.7 173.1
    endloop
  endfacet
  facet normal -0 0 1
    outer loop
      vertex 11 73.2 177.1
      vertex 16 65.7 177.1
      vertex 16 73.2 177.1
    endloop
  endfacet
  facet normal 0 0 1
    outer loop
      vertex 16 65.7 177.1
      vertex 11 73.2 177.1
      vertex 11 65.7 177.1
    endloop
  endfacet
  facet normal 0 0 -1
    outer loop
      vertex 11 65.7 173.1
      vertex 16 73.2 173.1
      vertex 16 65.7 173.1
    endloop
  endfacet
  facet normal -0 0 -1
    outer loop
      vertex 16 73.2 173.1
      vertex 11 65.7 173.1
      vertex 11 73.2 173.1
    endloop
  endfacet
  facet normal -1 0 0
    outer loop
      vertex 11 65.7 173.1
      vertex 11 73.2 177.1
      vertex 11 73.2 173.1
    endloop
  endfacet
  facet normal -1 -0 0
    outer loop
      vertex 11 73.2 177.1
      vertex 11 65.7 173.1
      vertex 11 65.7 177.1
    endloop
  endfacet
  facet normal 0 -1 0
    outer loop
      vertex 11 65.7 173.1
      vertex 16 65.7 177.1
      vertex 11 65.7 177.1
    endloop
  endfacet
  facet normal 0 -1 -0
    outer loop
      vertex 16 65.7 177.1
      vertex 11 65.7 173.1
      vertex 16 65.7 173.1
    endloop
  endfacet
  facet normal 0 -1 0
    outer loop
      vertex 16 -91.7 0
      vertex 22 -91.7 197.8
      vertex 16 -91.7 197.8
    endloop
  endfacet
  facet normal 0 -1 -0
    outer loop
      vertex 22 -91.7 197.8
      vertex 16 -91.7 0
      vertex 22 -91.7 0
    endloop
  endfacet
  facet normal 0 1 -0
    outer loop
      vertex 22 -96.7 0
      vertex 16 -96.7 197.8
      vertex 22 -96.7 197.8
    endloop
  endfacet
  facet normal 0 1 0
    outer loop
      vertex 16 -96.7 197.8
      vertex 22 -96.7 0
      vertex 16 -96.7 0
    endloop
  endfacet
  facet normal 1 -0 0
    outer loop
      vertex 22 -91.7 197.8
      vertex 22 -86.7 0
      vertex 22 -86.7 197.8
    endloop
  endfacet
  facet normal 1 0 0
    outer loop
      vertex 22 -86.7 0
      vertex 22 -91.7 197.8
      vertex 22 -91.7 0
    endloop
  endfacet
  facet normal 1 -0 0
    outer loop
      vertex 22 -101.7 197.8
      vertex 22 -96.7 0
      vertex 22 -96.7 197.8
    endloop
  endfacet
  facet normal 1 0 0
    outer loop
      vertex 22 -96.7 0
      vertex 22 -101.7 197.8
      vertex 22 -101.7 0
    endloop
  endfacet
  facet normal 0 -1 0
    outer loop
      vertex 22 -86.7 0
      vertex 32 -86.7 197.8
      vertex 22 -86.7 197.8
    endloop
  endfacet
  facet normal 0 -1 -0
    outer loop
      vertex 32 -86.7 197.8
      vertex 22 -86.7 0
      vertex 32 -86.7 0
    endloop
  endfacet
  facet normal 0 1 -0
    outer loop
      vertex 32 -101.7 0
      vertex 22 -101.7 197.8
      vertex 32 -101.7 197.8
    endloop
  endfacet
  facet normal 0 1 0
    outer loop
      vertex 22 -101.7 197.8
      vertex 32 -101.7 0
      vertex 22 -101.7 0
    endloop
  endfacet
  facet normal 0 -1 0
    outer loop
      vertex 16 -15.5 0
      vertex 22 -15.5 197.8
      vertex 16 -15.5 197.8
    endloop
  endfacet
  facet normal 0 -1 -0
    outer loop
      vertex 22 -15.5 197.8
      vertex 16 -15.5 0
      vertex 22 -15.5 0
    endloop
  endfacet
  facet normal 0 1 -0
    outer loop
      vertex 22 -20.5 0
      vertex 16 -20.5 197.8
      vertex 22 -20.5 197.8
    endloop
  endfacet
  facet normal 0 1 0
    outer loop
      vertex 16 -20.5 197.8
      vertex 22 -20.5 0
      vertex 16 -20.5 0
    endloop
  endfacet
  facet normal 1 -0 0
    outer loop
      vertex 22 -15.5 197.8
      vertex 22 -10.5 0
      vertex 22 -10.5 197.8
    endloop
  endfacet
  facet normal 1 0 0
    outer loop
      vertex 22 -10.5 0
      vertex 22 -15.5 197.8
      vertex 22 -15.5 0
    endloop
  endfacet
  facet normal 1 -0 0
    outer loop
      vertex 22 -25.5 197.8
      vertex 22 -20.5 0
      vertex 22 -20.5 197.8
    endloop
  endfacet
  facet normal 1 0 0
    outer loop
      vertex 22 -20.5 0
      vertex 22 -25.5 197.8
      vertex 22 -25.5 0
    endloop
  endfacet
  facet normal 0 -1 0
    outer loop
      vertex 22 -10.5 0
      vertex 32 -10.5 197.8
      vertex 22 -10.5 197.8
    endloop
  endfacet
  facet normal 0 -1 -0
    outer loop
      vertex 32 -10.5 197.8
      vertex 22 -10.5 0
      vertex 32 -10.5 0
    endloop
  endfacet
  facet normal 0 1 -0
    outer loop
      vertex 32 -25.5 0
      vertex 22 -25.5 197.8
      vertex 32 -25.5 197.8
    endloop
  endfacet
  facet normal 0 1 0
    outer loop
      vertex 22 -25.5 197.8
      vertex 32 -25.5 0
      vertex 22 -25.5 0
    endloop
  endfacet
  facet normal 0 -1 0
    outer loop
      vertex 16 60.7 0
      vertex 22 60.7 197.8
      vertex 16 60.7 197.8
    endloop
  endfacet
  facet normal 0 -1 -0
    outer loop
      vertex 22 60.7 197.8
      vertex 16 60.7 0
      vertex 22 60.7 0
    endloop
  endfacet
  facet normal 0 1 -0
    outer loop
      vertex 22 55.7 0
      vertex 16 55.7 197.8
      vertex 22 55.7 197.8
    endloop
  endfacet
  facet normal 0 1 0
    outer loop
      vertex 16 55.7 197.8
      vertex 22 55.7 0
      vertex 16 55.7 0
    endloop
  endfacet
  facet normal 1 -0 0
    outer loop
      vertex 22 60.7 197.8
      vertex 22 65.7 0
      vertex 22 65.7 197.8
    endloop
  endfacet
  facet normal 1 0 0
    outer loop
      vertex 22 65.7 0
      vertex 22 60.7 197.8
      vertex 22 60.7 0
    endloop
  endfacet
  facet normal 1 -0 0
    outer loop
      vertex 22 50.7 197.8
      vertex 22 55.7 0
      vertex 22 55.7 197.8
    endloop
  endfacet
  facet normal 1 0 0
    outer loop
      vertex 22 55.7 0
      vertex 22 50.7 197.8
      vertex 22 50.7 0
    endloop
  endfacet
  facet normal 0 -1 0
    outer loop
      vertex 22 65.7 0
      vertex 32 65.7 197.8
      vertex 22 65.7 197.8
    endloop
  endfacet
  facet normal 0 -1 -0
    outer loop
      vertex 32 65.7 197.8
      vertex 22 65.7 0
      vertex 32 65.7 0
    endloop
  endfacet
  facet normal 0 1 -0
    outer loop
      vertex 32 50.7 0
      vertex 22 50.7 197.8
      vertex 32 50.7 197.8
    endloop
  endfacet
  facet normal 0 1 0
    outer loop
      vertex 22 50.7 197.8
      vertex 32 50.7 0
      vertex 22 50.7 0
    endloop
  endfacet
  facet normal 1 -0 0
    outer loop
      vertex 32 65.7 197.8
      vertex 32 73.2 0
      vertex 32 73.2 197.8
    endloop
  endfacet
  facet normal 1 0 0
    outer loop
      vertex 32 73.2 0
      vertex 32 65.7 197.8
      vertex 32 65.7 0
    endloop
  endfacet
  facet normal 1 -0 0
    outer loop
      vertex 32 -109.2 197.8
      vertex 32 -101.7 0
      vertex 32 -101.7 197.8
    endloop
  endfacet
  facet normal 1 0 0
    outer loop
      vertex 32 -101.7 0
      vertex 32 -109.2 197.8
      vertex 32 -109.2 0
    endloop
  endfacet
  facet normal 1 -0 0
    outer loop
      vertex 32 -86.7 197.8
      vertex 32 -25.5 0
      vertex 32 -25.5 197.8
    endloop
  endfacet
  facet normal 1 0 0
    outer loop
      vertex 32 -25.5 0
      vertex 32 -86.7 197.8
      vertex 32 -86.7 0
    endloop
  endfacet
  facet normal 1 -0 0
    outer loop
      vertex 32 -10.5 197.8
      vertex 32 50.7 0
      vertex 32 50.7 197.8
    endloop
  endfacet
  facet normal 1 0 0
    outer loop
      vertex 32 50.7 0
      vertex 32 -10.5 197.8
      vertex 32 -10.5 0
    endloop
  endfacet
  facet normal 0 0 1
    outer loop
      vertex 32 73.2 197.8
      vertex 22 65.7 197.8
      vertex 32 65.7 197.8
    endloop
  endfacet
  facet normal -0 0 1
    outer loop
      vertex 16 73.2 197.8
      vertex 22 65.7 197.8
      vertex 32 73.2 197.8
    endloop
  endfacet
  facet normal 0 0 1
    outer loop
      vertex 16 60.7 197.8
      vertex 22 65.7 197.8
      vertex 16 73.2 197.8
    endloop
  endfacet
  facet normal 0 0 1
    outer loop
      vertex 22 65.7 197.8
      vertex 16 60.7 197.8
      vertex 22 60.7 197.8
    endloop
  endfacet
  facet normal 0 0 1
    outer loop
      vertex 22 -96.7 197.8
      vertex 16 -96.7 197.8
      vertex 22 -101.7 197.8
    endloop
  endfacet
  facet normal -0 0 1
    outer loop
      vertex 22 -101.7 197.8
      vertex 32 -109.2 197.8
      vertex 32 -101.7 197.8
    endloop
  endfacet
  facet normal 0 0 1
    outer loop
      vertex 22 -101.7 197.8
      vertex 16 -109.2 197.8
      vertex 32 -109.2 197.8
    endloop
  endfacet
  facet normal 0 0 1
    outer loop
      vertex 16 -109.2 197.8
      vertex 22 -101.7 197.8
      vertex 16 -96.7 197.8
    endloop
  endfacet
  facet normal -0 0 1
    outer loop
      vertex 16 -20.5 197.8
      vertex 22 -25.5 197.8
      vertex 22 -20.5 197.8
    endloop
  endfacet
  facet normal 0 0 1
    outer loop
      vertex 22 -25.5 197.8
      vertex 16 -20.5 197.8
      vertex 22 -86.7 197.8
    endloop
  endfacet
  facet normal 0 0 1
    outer loop
      vertex 16 -91.7 197.8
      vertex 22 -86.7 197.8
      vertex 16 -20.5 197.8
    endloop
  endfacet
  facet normal 0 0 1
    outer loop
      vertex 22 -86.7 197.8
      vertex 16 -91.7 197.8
      vertex 22 -91.7 197.8
    endloop
  endfacet
  facet normal -0 0 1
    outer loop
      vertex 22 -25.5 197.8
      vertex 32 -86.7 197.8
      vertex 32 -25.5 197.8
    endloop
  endfacet
  facet normal 0 0 1
    outer loop
      vertex 32 -86.7 197.8
      vertex 22 -25.5 197.8
      vertex 22 -86.7 197.8
    endloop
  endfacet
  facet normal -0 0 1
    outer loop
      vertex 16 55.7 197.8
      vertex 22 50.7 197.8
      vertex 22 55.7 197.8
    endloop
  endfacet
  facet normal 0 0 1
    outer loop
      vertex 22 50.7 197.8
      vertex 16 55.7 197.8
      vertex 22 -10.5 197.8
    endloop
  endfacet
  facet normal 0 0 1
    outer loop
      vertex 16 -15.5 197.8
      vertex 22 -10.5 197.8
      vertex 16 55.7 197.8
    endloop
  endfacet
  facet normal 0 0 1
    outer loop
      vertex 22 -10.5 197.8
      vertex 16 -15.5 197.8
      vertex 22 -15.5 197.8
    endloop
  endfacet
  facet normal -0 0 1
    outer loop
      vertex 22 50.7 197.8
      vertex 32 -10.5 197.8
      vertex 32 50.7 197.8
    endloop
  endfacet
  facet normal 0 0 1
    outer loop
      vertex 32 -10.5 197.8
      vertex 22 50.7 197.8
      vertex 22 -10.5 197.8
    endloop
  endfacet
  facet normal 0 0 -1
    outer loop
      vertex 22 60.7 0
      vertex 16 60.7 0
      vertex 22 65.7 0
    endloop
  endfacet
  facet normal 0 0 -1
    outer loop
      vertex 22 65.7 0
      vertex 32 73.2 0
      vertex 32 65.7 0
    endloop
  endfacet
  facet normal 0 0 -1
    outer loop
      vertex 22 65.7 0
      vertex 16 73.2 0
      vertex 32 73.2 0
    endloop
  endfacet
  facet normal 0 0 -1
    outer loop
      vertex 16 73.2 0
      vertex 22 65.7 0
      vertex 16 60.7 0
    endloop
  endfacet
  facet normal 0 0 -1
    outer loop
      vertex 32 -109.2 0
      vertex 22 -101.7 0
      vertex 32 -101.7 0
    endloop
  endfacet
  facet normal 0 0 -1
    outer loop
      vertex 16 -109.2 0
      vertex 22 -101.7 0
      vertex 32 -109.2 0
    endloop
  endfacet
  facet normal 0 0 -1
    outer loop
      vertex 16 -96.7 0
      vertex 22 -101.7 0
      vertex 16 -109.2 0
    endloop
  endfacet
  facet normal 0 0 -1
    outer loop
      vertex 22 -101.7 0
      vertex 16 -96.7 0
      vertex 22 -96.7 0
    endloop
  endfacet
  facet normal 0 0 -1
    outer loop
      vertex 16 -91.7 0
      vertex 22 -86.7 0
      vertex 22 -91.7 0
    endloop
  endfacet
  facet normal -0 0 -1
    outer loop
      vertex 22 -86.7 0
      vertex 16 -91.7 0
      vertex 22 -25.5 0
    endloop
  endfacet
  facet normal 0 0 -1
    outer loop
      vertex 16 -20.5 0
      vertex 22 -25.5 0
      vertex 16 -91.7 0
    endloop
  endfacet
  facet normal 0 0 -1
    outer loop
      vertex 22 -25.5 0
      vertex 16 -20.5 0
      vertex 22 -20.5 0
    endloop
  endfacet
  facet normal 0 0 -1
    outer loop
      vertex 22 -86.7 0
      vertex 32 -25.5 0
      vertex 32 -86.7 0
    endloop
  endfacet
  facet normal -0 0 -1
    outer loop
      vertex 32 -25.5 0
      vertex 22 -86.7 0
      vertex 22 -25.5 0
    endloop
  endfacet
  facet normal 0 0 -1
    outer loop
      vertex 16 -15.5 0
      vertex 22 -10.5 0
      vertex 22 -15.5 0
    endloop
  endfacet
  facet normal -0 0 -1
    outer loop
      vertex 22 -10.5 0
      vertex 16 -15.5 0
      vertex 22 50.7 0
    endloop
  endfacet
  facet normal 0 0 -1
    outer loop
      vertex 16 55.7 0
      vertex 22 50.7 0
      vertex 16 -15.5 0
    endloop
  endfacet
  facet normal 0 0 -1
    outer loop
      vertex 22 50.7 0
      vertex 16 55.7 0
      vertex 22 55.7 0
    endloop
  endfacet
  facet normal 0 0 -1
    outer loop
      vertex 22 -10.5 0
      vertex 32 50.7 0
      vertex 32 -10.5 0
    endloop
  endfacet
  facet normal -0 0 -1
    outer loop
      vertex 32 50.7 0
      vertex 22 -10.5 0
      vertex 22 50.7 0
    endloop
  endfacet
endsolid OpenSCAD_Model
